<?xml version="1.0" encoding="UTF-8"?>
<svg data-bbox="2.25 2.25 441.12 276.64" viewBox="0 0 445.62 281.14" xmlns="http://www.w3.org/2000/svg" data-type="ugc">
    <g>
        <g>
            <path d="m156.79 123.28-1.37-4a6.55 6.55 0 0 1-3.23.89c-2.26 0-4.11-1.3-4.11-4.39V90.47h-5.29v6.24c-2.4-4.53-6.86-7.07-12.91-7.07-10.84 0-16.47 8.72-16.47 17.85S119.1 125 130 125c6 0 10.57-2.41 13.18-7.35A7.56 7.56 0 0 0 151 125a10.94 10.94 0 0 0 5.76-1.72m-26.08-3.09c-7.14 0-12-5.28-12-12.84 0-6.79 3.92-12.83 11.74-12.83 7.28 0 12.22 5.21 12.22 12.83s-5 12.84-12 12.84"/>
            <path d="M188.88 124.58h5.22v-48h-5.36v20c-2.4-4.4-6.93-6.87-12.84-6.87-10.84 0-16.47 8.72-16.47 17.78S165 125 175.84 125c6 0 10.57-2.54 13-7zm-12.29-4.39c-7.07 0-11.81-5.28-11.81-12.84 0-6.79 4-12.83 11.74-12.83 7.28 0 12.22 5.28 12.22 12.83s-4.94 12.84-12.15 12.84"/>
            <path d="M209.47 96.23v-5.76h-5.28v34.11h5.35v-18.87c0-7.35 4.05-10.78 9-10.78a11.43 11.43 0 0 1 4.67 1l1-4.94a13.28 13.28 0 0 0-5.08-1c-4.26 0-8 2-9.68 6.18"/>
            <path d="M242.28 125a12.81 12.81 0 0 0 12.08-7.27v6.86h5.22V90.46h-5.29v17.1c0 7.89-4.87 12.63-11 12.63-5.15 0-8.24-3.3-8.24-9.34V90.46h-5.35V112c0 8.24 4.94 13 12.56 13"/>
            <path d="M89.66 167.29c-5.7-1.85-11.33-3.77-11.33-9.68 0-5 4-7.89 9.34-7.89a14 14 0 0 1 10.78 4.94l3.7-3.84a18.51 18.51 0 0 0-14.21-6.39c-8.51 0-15.24 5.36-15.24 14.07s6.87 11.26 14.56 13.73c5.69 1.86 11 3.64 11 9.13 0 4.67-3.71 8-9.61 8a15.57 15.57 0 0 1-12.77-6.52l-4.12 4a21 21 0 0 0 16.54 7.82c8.52 0 15.59-4.94 15.59-14 0-8.58-6.73-11.05-14.28-13.39"/>
            <path d="M141.21 159.47h-7.62l-16.2 14.75v-28.69h-5.36v48.05h5.36v-16.33l18.05 16.33h7.9l-20.12-18.12 17.99-15.99z"/>
            <path d="M173.47 175.39c0 7.42-4.67 12.57-11 12.57-5.29 0-8.93-3.58-8.93-9.41v-19.08h-5.28v20.38c0 8.59 6.52 13 13.25 13 5.42 0 9.81-2.68 11.94-7.07v7.69c0 7.34-4.05 11.32-10.71 11.32-5.76 0-9.81-2.81-11.53-8.78l-5 1.92c2.2 7.62 8.31 11.74 16.4 11.74 9.62 0 16.14-6.18 16.14-16.89v-33.31h-5.29z"/>
            <path d="M193.77 165.23v-5.76h-5.29v34.11h5.36v-18.87c0-7.35 4-10.78 9-10.78a11.43 11.43 0 0 1 4.67 1l1-4.94a13.28 13.28 0 0 0-5.08-1c-4.26 0-8 2-9.68 6.18"/>
            <path d="M218 143.81a4 4 0 1 0 0 8 4 4 0 1 0 0-8"/>
            <path d="M220.64 159.47v34.12h-5.29v-34.12h5.29z"/>
            <path d="M255.31 176.56c0 7.9-4.88 12.63-11 12.63-5.15 0-8.24-3.29-8.24-9.34v-20.38h-5.35V181c0 8.24 4.94 13.05 12.56 13.05a12.79 12.79 0 0 0 12.08-7.28v6.86h5.22v-34.16h-5.28z"/>
            <path d="M284.13 174.16c-5-1-9-1.93-9-5.7 0-3.16 2.82-5.08 6.8-5.08 3.16 0 6.93 1.17 9.2 3.71l3-3.57a16.56 16.56 0 0 0-12.08-4.88c-6.39 0-12.15 3.37-12.15 10.16 0 7.48 7.07 8.93 12.9 10.09 4.6 1 8.1 1.86 8.1 5.36s-3.36 5-7.34 5-9-1.85-11.67-5.7l-3.57 3.64a19.13 19.13 0 0 0 14.82 6.8c7.08 0 13.05-3.71 13.05-10.44 0-6.93-6.39-8.17-12.09-9.4"/>
            <path d="M258.25 133.15c-1.82 0-3.13-1-3.1-2.9s1.49-3.86 4.43-5.67h-5.22a9.21 9.21 0 0 0-3.2 6.36 5.87 5.87 0 0 0 6.15 6.13 9.9 9.9 0 0 0 5.33-1.49L261.1 132a6.73 6.73 0 0 1-2.85 1.18"/>
            <path d="M109.91 76.53h-7.69l-22.1 22.24V76.53h-5.56v48.05h5.56v-23.2l23.27 23.2h7.96L86.23 99.87l23.68-23.34z"/>
            <path fill="none" stroke="#000000" stroke-miterlimit="10" stroke-width="4.5" d="M50.14 253.94H26.2V27.2h393.22v24.94"/>
            <path fill="none" stroke="#000000" stroke-miterlimit="10" stroke-width="4.5" d="M395.48 27.2V2.25H2.25V229H26.2"/>
            <path fill="none" stroke="#000000" stroke-miterlimit="10" stroke-width="4.5" d="M443.37 52.14v226.75H50.14V52.14h393.23z"/>
        </g>
    </g>
</svg>
